<?xml version="1.0" encoding="utf-8"?>
<!-- Generator: Adobe Illustrator 28.3.0, SVG Export Plug-In . SVG Version: 6.00 Build 0)  -->
<svg version="1.1" id="Layer_1" xmlns="http://www.w3.org/2000/svg" xmlns:xlink="http://www.w3.org/1999/xlink" x="0px" y="0px"
	 viewBox="0 0 239.8 97.3" style="enable-background:new 0 0 239.8 97.3;" xml:space="preserve">
<style type="text/css">
	.st0{fill:#003670;}
	.st1{fill:#EC252C;}
</style>
<g id="Grupo_3617" transform="translate(-267 0)">
	<g id="Grupo_3610" transform="translate(267 0)">
		<g id="Grupo_3607" transform="translate(0.607 70.502)">
			<path id="Trazado_2464" class="st0" d="M11.2,14.5C10,15,8.7,14.6,8,13.6l-2.3-3C5,9.9,4.1,9.5,3.1,9.7v2.9
				c0,1.1,0.7,1.2,1.7,1.4c0.1,0,0,0.5-0.1,0.5H0.1c-0.1,0-0.2-0.5,0-0.5c0.8-0.1,1.3-0.4,1.3-1.4V5.8c0-1-0.5-1.3-1.3-1.5
				c-0.1,0,0-0.5,0.1-0.5c0.6,0.1,1.2,0.1,1.7,0.1c1.1,0,2.2-0.1,2.9-0.1c2.3,0,3.8,0.9,3.8,2.8c0,1.5-1.2,2.7-2.7,2.7v0.1
				c0.6,0,1,0.3,1.7,1.1l2.3,2.8c0.3,0.4,0.7,0.7,1.3,0.8C11.3,14.1,11.2,14.5,11.2,14.5z M6.7,7c0.1-1.2-0.8-2.3-2-2.4
				c-0.1,0-0.2,0-0.4,0C3.4,4.6,3.1,5,3.1,5.8V9h0.4C5.8,9,6.7,8.6,6.7,7L6.7,7z"/>
			<path id="Trazado_2465" class="st0" d="M13.6,14c0.9-0.2,1.6-0.4,1.6-1.5V5.7c0-1-0.6-1.2-1.3-1.4c-0.1,0,0-0.5,0.1-0.5
				c1.1,0.1,3,0.1,3.9,0.1c1.4,0,2.4-0.1,3.6-0.1c0.4,0,0.4,0.2,0.3,0.6l-0.4,1.4c0,0.2-0.4,0.2-0.5,0c-0.2-0.7-0.7-1.2-2.6-1.2
				C17.3,4.7,17,5,17,5.8v2.5c0,0.4,0.2,0.5,0.5,0.5h0.3c1,0.1,2.1-0.1,2.9-0.7C20.9,8,21.2,8,21,8.3l-0.9,1.9
				c-0.1,0.3-0.3,0.2-0.5,0c-0.5-0.5-1.3-0.8-2-0.7h-0.2c-0.3,0-0.5,0.1-0.5,0.5v2.5c0,0.9,0.4,1.2,1.6,1.2c2.3,0,3.2-1,3.6-1.6
				c0.1-0.2,0.5-0.1,0.5,0.2c0,0.8-0.7,2.3-1.6,2.3c-0.8,0-1.7-0.1-3-0.1c-1.4,0-3.1,0-4.4,0.1C13.5,14.5,13.5,14,13.6,14z"/>
			<path id="Trazado_2466" class="st0" d="M28.8,10.4v2.2c0,1.1,0.7,1.2,1.7,1.4c0.1,0,0,0.5-0.1,0.5h-4.6c-0.1,0-0.2-0.5-0.1-0.5
				c0.8-0.1,1.3-0.4,1.3-1.4V5.8c0-1-0.5-1.3-1.3-1.5c-0.1,0,0-0.5,0.1-0.5c0.6,0.1,1.2,0.1,1.7,0.1c1.1,0,2.1-0.1,2.8-0.1
				c2.4,0,4.3,0.9,4.3,3.2C34.6,9.8,32.1,10.9,28.8,10.4z M28.8,5.8v3.8c2.6,0.4,3.9-0.3,3.9-2.2c0.1-1.4-0.9-2.7-2.3-2.8
				c-0.1,0-0.3,0-0.4,0C29,4.6,28.8,5,28.8,5.8z"/>
			<path id="Trazado_2467" class="st0" d="M38.9,10.5V5.7c0.1-0.7-0.4-1.3-1-1.4c-0.1,0-0.1,0-0.2,0c-0.1,0,0-0.5,0.1-0.5h4.1
				c0.1,0,0.2,0.5,0.1,0.5c-0.7,0-1.2,0.5-1.2,1.2c0,0.1,0,0.1,0,0.2v4.8c0,2.1,1.2,3.1,2.8,3.1c1.5,0.1,2.9-1.1,3-2.6
				c0-0.2,0-0.3,0-0.5V5.7c0-1-0.6-1.3-1.3-1.4c-0.1,0,0-0.5,0.1-0.5h3.4c0.1,0,0.2,0.5,0.1,0.5c-0.7,0-1.2,0.5-1.2,1.2
				c0,0.1,0,0.1,0,0.2v4.8c0.2,2.2-1.4,4.1-3.6,4.2c-0.2,0-0.4,0-0.6,0C41.3,14.7,38.9,13.6,38.9,10.5z M43.4,0.1
				c0.3-0.4,1.5,0.8,1.2,1l-2,1.5c-0.2,0.2-0.7-0.3-0.6-0.5L43.4,0.1z"/>
			<path id="Trazado_2468" class="st0" d="M61.1,11.4c0,1.9-1.7,3.1-4.2,3.1c-0.7,0-1.6-0.1-2.7-0.1c-0.8,0-1.6,0-2.4,0.1
				c-0.1,0-0.2-0.5-0.1-0.5c0.9-0.2,1.6-0.4,1.6-1.5V5.7c0-1-0.6-1.2-1.3-1.4c-0.1,0,0-0.5,0.1-0.5c0.6,0.1,1.2,0.1,1.8,0.1
				c1.2,0,2.1-0.1,2.8-0.1c2,0,3.6,0.8,3.6,2.5c0,1.1-0.8,2.1-1.9,2.3v0.1C59.8,8.7,61,9.8,61.1,11.4L61.1,11.4z M55,5.7v2.7h1.6
				c0.8,0.1,1.6-0.5,1.7-1.3c0-0.1,0-0.3,0-0.4c0.1-1.1-0.8-2.1-1.9-2.1c-0.1,0-0.2,0-0.3,0C55.3,4.6,55,4.9,55,5.7L55,5.7z
				 M59.1,11.8c0.1-1.3-0.9-2.4-2.2-2.5c-0.1,0-0.2,0-0.3,0H55v3.3c0,0.8,0.4,1.2,1.7,1.2C58.1,13.7,59.1,13.3,59.1,11.8L59.1,11.8z
				"/>
			<path id="Trazado_2469" class="st0" d="M64,14c0.9-0.2,1.6-0.4,1.6-1.5V5.7c0-1.1-0.6-1.3-1.3-1.4c-0.1,0,0-0.5,0.1-0.5h4.2
				c0.1,0,0.2,0.5,0.1,0.5c-0.7,0-1.2,0.5-1.3,1.1c0,0.1,0,0.1,0,0.2v6.7c0,0.9,0.4,1.2,1.6,1.2c2.3,0,3.2-1,3.6-1.6
				c0.1-0.2,0.5-0.1,0.5,0.2c0,0.8-0.7,2.3-1.6,2.3c-0.8,0-1.7-0.1-3-0.1c-1.4,0-3.1,0-4.4,0.1C63.9,14.5,63.8,14,64,14z"/>
			<path id="Trazado_2470" class="st0" d="M75.7,14c0.8-0.1,1.3-0.4,1.3-1.4V5.7c0-1-0.5-1.3-1.3-1.4c-0.1,0,0-0.5,0.1-0.5H80
				c0.1,0,0.2,0.5,0.1,0.5c-0.7,0.1-1.3,0.3-1.3,1.4v6.9c0,1.1,0.6,1.3,1.3,1.4c0.1,0,0,0.5-0.1,0.5h-4.2C75.7,14.5,75.6,14,75.7,14
				z"/>
			<path id="Trazado_2471" class="st0" d="M83.3,9.4c-0.1-3,2.2-5.6,5.2-5.8c0.2,0,0.4,0,0.6,0c1.8,0,3.3,0.5,3.1,1.1L92,5.3
				c-0.5,1.6-1.1-0.5-3.8-0.5C86,4.8,85,6.2,85,8.4c-0.1,2.5,1.8,4.7,4.4,4.8c0.1,0,0.2,0,0.3,0c0.9-0.1,1.7-0.3,2.4-0.7
				c0.1-0.1,0.4,0.3,0.3,0.4c-0.8,0.9-1.9,1.5-3.2,1.8C86.7,14.7,83.3,13.2,83.3,9.4z"/>
			<path id="Trazado_2472" class="st0" d="M106.3,14.5h-4c-0.2,0-0.2-0.5,0-0.5c0.6-0.1,1.2-0.3,0.6-1.6l-0.2-0.4
				c-0.2-0.4-0.4-0.4-0.9-0.4h-3.1c-0.5,0-0.7,0-0.9,0.4l-0.2,0.4c-0.5,1.3,0,1.5,0.8,1.6c0.2,0,0.2,0.5,0,0.5h-3.3
				c-0.2,0-0.2-0.5,0-0.5c0.6-0.1,1-0.3,1.5-1.6l2.6-5.9c0.4-0.8,0.7-1.6,0.8-2.5c0.3-0.2,0.7-0.3,1.1-0.2l3.7,8.6
				c0.5,1.3,0.9,1.5,1.5,1.6C106.5,14,106.5,14.5,106.3,14.5z M102.1,10.5l-1.8-4.2l-1.8,4.2c-0.1,0.2,0.1,0.2,0.3,0.2h2.9
				C101.9,10.7,102.2,10.7,102.1,10.5L102.1,10.5z"/>
			<path id="Trazado_2473" class="st0" d="M113.7,14c0.9-0.2,1.6-0.4,1.6-1.5V5.7c0-1-0.6-1.2-1.3-1.4c-0.1,0,0-0.5,0.1-0.5
				c0.6,0.1,1.3,0.1,1.9,0.1c1.2,0,2.2-0.1,3-0.1c3.7,0,5.7,2.2,5.7,5.1c0.1,3-2.2,5.5-5.2,5.6c-0.2,0-0.3,0-0.5,0
				c-0.7,0-1.7-0.1-2.8-0.1c-0.8,0-1.6,0-2.4,0.1C113.6,14.5,113.5,14,113.7,14z M122.8,9.8c0-2.9-1.6-5.2-4.3-5.2
				c-1.1,0-1.4,0.3-1.4,1.1v6.7c0,0.8,0.6,1.2,2,1.2C121.5,13.7,122.8,12.4,122.8,9.8L122.8,9.8z"/>
			<path id="Trazado_2474" class="st0" d="M127.9,9.2c-0.1-3,2.2-5.5,5.2-5.6c0.1,0,0.2,0,0.3,0c2.9-0.1,5.4,2.2,5.5,5.1
				c0,0.1,0,0.2,0,0.3c0.1,3-2.2,5.5-5.2,5.6c-0.1,0-0.2,0-0.3,0c-2.9,0.1-5.4-2.2-5.5-5.2C127.9,9.4,127.9,9.3,127.9,9.2z
				 M137.1,9.9c0-3.1-2.1-5.3-4.3-5.3c-1.3,0-3.1,0.9-3.1,3.7c0,3.1,2.1,5.3,4.2,5.3C135.3,13.7,137.1,12.8,137.1,9.9z"/>
			<path id="Trazado_2475" class="st0" d="M155.4,14.5h-4c-0.1,0-0.2-0.5-0.1-0.5c0.6,0,1.1-0.6,1.1-1.2c0-0.1,0-0.1,0-0.2l-0.3-5.1
				l-2.5,5c-0.3,0.5-0.5,1-0.6,1.6c0,0.2-0.3,0.3-0.6,0.3c-0.2,0-0.4-0.1-0.5-0.3l-3.5-6.6l-0.2,5.2c0,1.1,0.6,1.3,1.1,1.4
				c0.1,0,0,0.5-0.1,0.5h-3.1c-0.1,0-0.2-0.5-0.1-0.5c0.7-0.1,1.2-0.3,1.3-1.4l0.5-8.7c0-0.3,0.6-0.3,0.7,0l4.4,8.2L153,4
				c0.1-0.3,0.7-0.3,0.8,0l0.5,8.7c0.1,1.1,0.6,1.3,1.2,1.4C155.6,14,155.5,14.5,155.4,14.5z"/>
			<path id="Trazado_2476" class="st0" d="M158.5,14c0.8-0.1,1.3-0.4,1.3-1.4V5.7c0-1-0.5-1.3-1.3-1.4c-0.1,0,0-0.5,0.1-0.5h4.2
				c0.1,0,0.2,0.5,0.1,0.5c-0.7,0.1-1.3,0.3-1.3,1.4v6.9c0,1.1,0.6,1.3,1.3,1.4c0.1,0,0,0.5-0.1,0.5h-4.2
				C158.5,14.5,158.4,14,158.5,14z"/>
			<path id="Trazado_2477" class="st0" d="M175.3,14.3l-7.2-7.6v5.8c0,1,0.6,1.2,1.5,1.4c0.1,0,0.1,0.5-0.1,0.5h-3.6
				c-0.1,0-0.2-0.5-0.1-0.5c0.6-0.2,1.2-0.3,1.2-1.4V6.7c0.1-0.8-0.1-1.5-0.6-2.1c-0.1-0.2-0.3-0.3-0.3-0.3c0-0.2,0.1-0.3,0.3-0.3
				h1.1c0.1,0,0.3,0,0.4,0.1l7.1,7.5V5.8c0-1.1-0.7-1.2-1.5-1.4c-0.1,0-0.1-0.5,0.1-0.5h3.6c0.1,0,0.2,0.5,0.1,0.5
				c-0.7,0.2-1.2,0.3-1.2,1.4v5.9c0,0.9,0,1.8,0.2,2.7c0.1,0.2-0.2,0.3-0.4,0.3C175.7,14.6,175.5,14.5,175.3,14.3z"/>
			<path id="Trazado_2478" class="st0" d="M180.4,14c0.8-0.1,1.3-0.4,1.3-1.4V5.7c0-1-0.5-1.3-1.3-1.4c-0.1,0,0-0.5,0.1-0.5h4.2
				c0.1,0,0.2,0.5,0.1,0.5c-0.7,0.1-1.3,0.3-1.3,1.4v6.9c0,1.1,0.6,1.3,1.3,1.4c0.1,0,0,0.5-0.1,0.5h-4.2
				C180.4,14.5,180.3,14,180.4,14z"/>
			<path id="Trazado_2479" class="st0" d="M188,9.4c-0.1-3,2.2-5.6,5.2-5.8c0.2,0,0.4,0,0.6,0c1.8,0,3.3,0.5,3.1,1.1l-0.2,0.6
				c-0.5,1.6-1.1-0.5-3.8-0.5c-2.2,0-3.2,1.4-3.2,3.6c-0.1,2.5,1.8,4.7,4.4,4.8c0.1,0,0.2,0,0.3,0c0.9-0.1,1.7-0.3,2.4-0.7
				c0.1-0.1,0.4,0.3,0.3,0.4c-0.8,0.9-1.9,1.5-3.2,1.8C191.4,14.7,188,13.2,188,9.4z"/>
			<path id="Trazado_2480" class="st0" d="M211,14.5h-4c-0.2,0-0.2-0.5,0-0.5c0.6-0.1,1.2-0.3,0.6-1.6l-0.2-0.4
				c-0.2-0.4-0.4-0.4-0.9-0.4h-3.1c-0.5,0-0.7,0-0.9,0.4l-0.2,0.4c-0.5,1.3,0,1.5,0.8,1.6c0.2,0,0.2,0.5,0,0.5h-3.3
				c-0.2,0-0.2-0.5,0-0.5c0.6-0.1,1-0.3,1.5-1.6l2.6-5.9c0.4-0.8,0.7-1.6,0.8-2.5c0.3-0.2,0.7-0.3,1.1-0.2l3.7,8.6
				c0.5,1.3,0.9,1.5,1.5,1.6C211.2,14,211.2,14.5,211,14.5z M206.8,10.5L205,6.2l-1.8,4.2c-0.1,0.2,0.1,0.2,0.3,0.2h2.9
				C206.6,10.7,206.8,10.7,206.8,10.5L206.8,10.5z"/>
			<path id="Trazado_2481" class="st0" d="M223.4,14.3l-7.2-7.6v5.8c0,1,0.6,1.2,1.5,1.4c0.1,0,0.1,0.5-0.1,0.5H214
				c-0.1,0-0.2-0.5-0.1-0.5c0.6-0.2,1.2-0.3,1.2-1.4V6.7c0.1-0.8-0.1-1.5-0.6-2.1c-0.1-0.2-0.3-0.3-0.3-0.3c0-0.2,0.1-0.3,0.3-0.3
				h1.1c0.1,0,0.3,0,0.4,0.1l7.1,7.5V5.8c0-1.1-0.7-1.2-1.5-1.4c-0.1,0-0.1-0.5,0.1-0.5h3.6c0.1,0,0.2,0.5,0.1,0.5
				c-0.7,0.2-1.2,0.3-1.2,1.4v5.9c0,0.9,0,1.8,0.2,2.7c0.1,0.2-0.2,0.3-0.4,0.3C223.7,14.6,223.5,14.5,223.4,14.3z"/>
			<path id="Trazado_2482" class="st0" d="M239,14.5h-4c-0.2,0-0.2-0.5,0-0.5c0.6-0.1,1.2-0.3,0.6-1.6l-0.2-0.4
				c-0.2-0.4-0.4-0.4-0.9-0.4h-3.1c-0.5,0-0.7,0-0.9,0.4l-0.2,0.4c-0.5,1.3,0,1.5,0.8,1.6c0.2,0,0.2,0.5,0,0.5h-3.3
				c-0.2,0-0.2-0.5,0-0.5c0.6-0.1,1-0.3,1.5-1.6l2.6-5.9c0.4-0.8,0.7-1.6,0.8-2.5c0.3-0.2,0.7-0.3,1.1-0.2l3.7,8.6
				c0.5,1.3,0.9,1.5,1.5,1.6C239.3,14,239.2,14.5,239,14.5z M234.8,10.5L233,6.2l-1.8,4.2c-0.1,0.2,0.1,0.2,0.3,0.2h2.9
				C234.6,10.7,234.9,10.7,234.8,10.5L234.8,10.5z"/>
		</g>
		<g id="Grupo_3608" transform="translate(0.735 60.2)">
			<path id="Trazado_2483" class="st0" d="M0,3.9L0,3.9C-0.1,1.8,1.6,0.1,3.7,0h0.1c1,0,2,0.3,2.8,1L6.1,1.7
				C5.4,1.1,4.6,0.8,3.8,0.8c-1.6,0-2.9,1.4-2.9,3c0,0,0,0,0,0.1l0,0C0.8,5.5,2,6.9,3.6,7c0.1,0,0.2,0,0.3,0c0.8,0,1.6-0.3,2.2-0.8
				V4.4H3.8V3.7h3.1v3C6,7.4,5,7.8,3.8,7.8C1.8,7.9,0.1,6.3,0,4.3C0,4.1,0,4,0,3.9z"/>
			<path id="Trazado_2484" class="st0" d="M9.5,3.9L9.5,3.9c0-2.1,1.7-3.9,3.8-3.9s3.9,1.7,3.9,3.8l0,0l0,0c0,2.1-1.7,3.9-3.8,3.9
				S9.5,6.1,9.5,3.9z M16.3,3.9L16.3,3.9c0.1-1.7-1.2-3.1-2.9-3.1h-0.1c-1.6,0-3,1.3-3,3v0.1l0,0c0,1.7,1.3,3.1,3,3.1h0.1
				c1.6,0,3-1.3,3-3C16.3,4,16.3,4,16.3,3.9z"/>
			<path id="Trazado_2485" class="st0" d="M20,0.1h3.2c0.7,0,1.4,0.2,2,0.7c0.3,0.3,0.5,0.8,0.5,1.2l0,0c0,0.8-0.5,1.5-1.2,1.7
				c0.9,0.3,1.6,0.8,1.6,1.8l0,0c0,1.3-1.1,2.1-2.7,2.1H20V0.1z M23.1,3.5c1,0,1.7-0.5,1.7-1.3l0,0c0-0.7-0.6-1.2-1.7-1.2h-2.3v2.6
				L23.1,3.5z M23.4,6.9c1.1,0,1.9-0.5,1.9-1.3l0,0c0-0.8-0.7-1.3-2-1.3h-2.4V7L23.4,6.9z"/>
			<path id="Trazado_2486" class="st0" d="M28.9,0.1h0.9v7.6h-0.9V0.1z"/>
			<path id="Trazado_2487" class="st0" d="M33,0.1h5.5v0.8h-4.6v2.6H38v0.8h-4.1v2.6h4.7v0.8H33V0.1z"/>
			<path id="Trazado_2488" class="st0" d="M41.3,0.1h3.2c0.8,0,1.6,0.2,2.1,0.8c0.4,0.4,0.6,0.9,0.6,1.5l0,0c0,1.2-0.9,2.1-2.1,2.2
				l2.3,3.1h-1l-2.2-2.9H42v2.9h-0.9L41.3,0.1z M44.5,4c1.1,0,1.9-0.6,1.9-1.6l0,0c0-0.9-0.7-1.5-1.9-1.5h-2.3V4H44.5z"/>
			<path id="Trazado_2489" class="st0" d="M50.1,0.1h0.8l4.8,6.1V0.1h0.8v7.6h-0.7L51,1.5v6.2h-0.8L50.1,0.1z"/>
			<path id="Trazado_2490" class="st0" d="M59.4,3.9L59.4,3.9c0-2.1,1.7-3.9,3.8-3.9c2.1,0,3.9,1.7,3.9,3.8l0,0l0,0
				c0,2.1-1.7,3.9-3.8,3.9S59.4,6.1,59.4,3.9z M66.2,3.9L66.2,3.9c0.1-1.7-1.2-3.1-2.9-3.1h-0.1c-1.6,0-3,1.3-3,3v0.1l0,0
				c0,1.7,1.3,3.1,2.9,3.1h0.1C64.8,7,66.2,5.7,66.2,3.9C66.2,4,66.2,4,66.2,3.9z"/>
			<path id="Trazado_2491" class="st0" d="M74.2,0.1h2.6c2.1-0.1,3.9,1.4,4,3.5c0,0.1,0,0.2,0,0.2l0,0c0,2.1-1.7,3.8-3.8,3.8
				c-0.1,0-0.2,0-0.2,0h-2.6V0.1z M76.8,6.9c1.6,0.1,3-1.1,3.1-2.7c0-0.1,0-0.2,0-0.3l0,0c0-1.6-1.3-3-2.9-3c-0.1,0-0.2,0-0.2,0H75
				v6C75,6.9,76.8,6.9,76.8,6.9z"/>
			<path id="Trazado_2492" class="st0" d="M83.6,0.1h5.5v0.8h-4.6v2.6h4.1v0.8h-4.1v2.6h4.7v0.8h-5.5L83.6,0.1L83.6,0.1z"/>
			<path id="Trazado_2493" class="st0" d="M96.2,0.1H97v6.8h4.3v0.8h-5.1L96.2,0.1z"/>
			<path id="Trazado_2494" class="st0" d="M106.7,0.1h0.8l3.4,7.6H110l-0.9-2H105l-0.9,2h-0.9L106.7,0.1z M108.8,4.9L107.1,1
				l-1.7,3.9H108.8z"/>
		</g>
		<g id="Grupo_3609">
			<path id="Rectángulo_2023" class="st0" d="M27.2,8.7h1c0.2,0,0.3,0.1,0.3,0.3v5.4c0,0.2-0.1,0.3-0.3,0.3h-1
				c-0.2,0-0.3-0.1-0.3-0.3V9C26.9,8.9,27.1,8.7,27.2,8.7z"/>
			<path id="Rectángulo_2024" class="st0" d="M29.8,8.7h1c0.2,0,0.3,0.1,0.3,0.3v5.4c0,0.2-0.1,0.3-0.3,0.3h-1
				c-0.2,0-0.3-0.1-0.3-0.3V9C29.5,8.9,29.7,8.7,29.8,8.7z"/>
			<path id="Rectángulo_2025" class="st0" d="M24.6,8.7h1c0.2,0,0.3,0.1,0.3,0.3v5.4c0,0.2-0.1,0.3-0.3,0.3h-1
				c-0.2,0-0.3-0.1-0.3-0.3V9C24.3,8.9,24.4,8.7,24.6,8.7z"/>
			<path id="Rectángulo_2026" class="st0" d="M22.6,7.5h10.3c0.1,0,0.2,0.1,0.2,0.2v0.4c0,0.1-0.1,0.2-0.2,0.2H22.6
				c-0.1,0-0.2-0.1-0.2-0.2V7.7C22.4,7.6,22.5,7.5,22.6,7.5z"/>
			<path id="Trazado_2495" class="st0" d="M37.6,17.8c0.3,0.2,0.7,0.5,1.1,0.9c0.9,0.8,1.8,1.6,2.6,2.4c2.1,2.3,3.8,4.9,5.1,7.7
				c0.6,1.3,1.2,2.6,1.6,4c0.5,1.4,0.9,2.8,1.2,4.2c0.5,2.5,0.8,5.3,0.8,5.3h3.8v-0.1l0.1,0.1l0,0c-0.4-11.2-7.4-21.2-17.8-25.4l0,0
				c0.3,0.2,0.6,0.3,0.8,0.5C37.1,17.5,37.3,17.7,37.6,17.8z"/>
			<path id="Trazado_2496" class="st0" d="M47.4,42.3c0-0.3-0.1-0.6-0.1-0.8c-0.3-3.2-1-6.4-2.2-9.4c-0.4-0.9-0.8-1.9-1.3-2.7
				c-0.1-0.2-0.3-0.5-0.4-0.7C41,23.8,37.1,20,32.3,17.8l0,0l0,0l0,0c0.9,0.9,1.7,1.9,2.4,3c3.1,4.8,4.9,10.3,5.4,16
				c0.2,1.4,0.2,2.8,0.2,4.2c0,0.4,0,1,0,1.2v0.1h0.8H47.4L47.4,42.3L47.4,42.3L47.4,42.3z"/>
			<path id="Trazado_2497" class="st0" d="M31.7,7c0-2.2-1.7-4-3.9-4.1V2.2h1.1V2.1l0,0V1.7l0,0h-0.2l0,0v0.4h-0.9V0.5l0,0l0,0l0,0
				V0.1l0,0h-0.2l0,0l0,0v0.4l0,0l0,0l0,0V2h-0.9V1.7l0,0h-0.2l0,0l0,0v0.4l0,0v0.1h1.1v0.7c-2.2,0.1-4,1.9-3.9,4.1l0,0H31.7L31.7,7
				z"/>
			<path id="Rectángulo_2027" class="st0" d="M22.6,15.3h10.3c0.1,0,0.2,0.1,0.2,0.2v0.4c0,0.1-0.1,0.2-0.2,0.2H22.6
				c-0.1,0-0.2-0.1-0.2-0.2v-0.4C22.4,15.4,22.5,15.3,22.6,15.3z"/>
			<path id="Trazado_2498" class="st0" d="M29.2,18.3l-0.1-0.1v24.1h8.8c0,0,0-0.2,0-0.4C37.9,31.7,34.4,22.8,29.2,18.3z"/>
			<path id="Rectángulo_2028" class="st0" d="M47.5,46h2.3c0.2,0,0.3,0.1,0.3,0.3v2.3c0,0.2-0.1,0.3-0.3,0.3h-2.3
				c-0.2,0-0.3-0.1-0.3-0.3v-2.3C47.2,46.2,47.3,46,47.5,46z"/>
			<path id="Rectángulo_2029" class="st0" d="M15.1,46h2.3c0.2,0,0.3,0.1,0.3,0.3v2.3c0,0.2-0.1,0.3-0.3,0.3h-2.3
				c-0.2,0-0.3-0.1-0.3-0.3v-2.3C14.8,46.2,14.9,46,15.1,46z"/>
			<path id="Rectángulo_2030" class="st0" d="M38,46h2.3c0.2,0,0.3,0.1,0.3,0.3v2.3c0,0.2-0.1,0.3-0.3,0.3H38
				c-0.2,0-0.3-0.1-0.3-0.3v-2.3C37.7,46.2,37.9,46,38,46z"/>
			<path id="Rectángulo_2031" class="st0" d="M26.6,46h2.3c0.2,0,0.3,0.1,0.3,0.3v2.3c0,0.2-0.1,0.3-0.3,0.3h-2.3
				c-0.2,0-0.3-0.1-0.3-0.3v-2.3C26.3,46.2,26.4,46,26.6,46z"/>
			<path id="Trazado_2499" class="st0" d="M55.3,44.3L55.3,44.3L55.3,44.3h-5.2v-0.9c0-0.1-0.1-0.3-0.3-0.3h-2.4
				c-0.1,0-0.3,0.1-0.3,0.3v0.9h-6.5v-0.9c0-0.1-0.1-0.3-0.3-0.3l0,0H38c-0.1,0-0.3,0.1-0.3,0.3v0.9h-8.5v-0.9
				c0-0.1-0.1-0.3-0.3-0.3h-2.4c-0.1,0-0.3,0.1-0.3,0.3v0.9h-8.5v-0.9c0-0.1-0.1-0.3-0.3-0.3H15c-0.1,0-0.3,0.1-0.3,0.3v0.9H8.3
				v-0.9c0-0.1-0.1-0.3-0.3-0.3l0,0H5.6c-0.1,0-0.3,0.1-0.3,0.3v0.9h-5l0,0H0.2c-0.1,0-0.2,0.1-0.2,0.2V45c0,0.1,0.1,0.2,0.2,0.2
				h55.2c0.1,0,0.2-0.1,0.2-0.2v-0.5C55.5,44.4,55.4,44.3,55.3,44.3L55.3,44.3z"/>
			<path id="Rectángulo_2032" class="st0" d="M5.7,46H8c0.2,0,0.3,0.1,0.3,0.3v2.3C8.3,48.8,8.2,49,8,49H5.7
				c-0.2,0-0.3-0.1-0.3-0.3v-2.3C5.4,46.2,5.5,46,5.7,46z"/>
			<path id="Trazado_2500" class="st0" d="M26.4,42.4V18.2l-0.1,0.1c-5.2,4.5-8.7,13.4-8.7,23.7c0,0.1,0,0.4,0,0.4H26.4z"/>
			<path id="Trazado_2501" class="st0" d="M1.7,42.4h1.4h1.3l0,0h1c0,0,0.3-2.8,0.8-5.3c0.6-2.8,1.6-5.6,2.8-8.2
				c1.3-2.8,3-5.4,5.1-7.7c0.8-0.9,1.7-1.7,2.6-2.4c0.4-0.4,0.8-0.6,1.1-0.9c0.2-0.2,0.4-0.3,0.6-0.4c0.3-0.2,0.6-0.4,0.8-0.5l0,0
				C8.9,21.1,1.9,31.1,1.5,42.3l0,0L1.7,42.4L1.7,42.4z"/>
			<path id="Trazado_2502" class="st0" d="M20.7,20.8c0.7-1.1,1.5-2.1,2.4-3l0,0l0,0l0,0c-4.8,2.3-8.7,6.1-11.1,10.8
				c-0.1,0.2-0.3,0.5-0.4,0.7c-0.5,0.9-0.9,1.8-1.3,2.7c-1.2,3-1.9,6.2-2.2,9.4C8.1,41.7,8,42,8,42.2v0.1l0,0l0,0h5.9h1v-0.1
				c0-0.2,0-0.8,0-1.2c0-1.4,0.1-2.8,0.2-4.2C15.8,31.2,17.6,25.7,20.7,20.8z"/>
			<path id="Rectángulo_2033" class="st0" d="M0.3,49.7h54.9c0.2,0,0.3,0.1,0.3,0.3v1.3c0,0.2-0.1,0.3-0.3,0.3H0.3
				c-0.2,0-0.3-0.1-0.3-0.3V50C0,49.8,0.1,49.7,0.3,49.7z"/>
		</g>
		<path id="Trazado_2503" class="st1" d="M55.2,97.3H0v-3h55.2"/>
	</g>
</g>
</svg>
