<?xml version="1.0" encoding="utf-8"?>
<!-- Generator: Adobe Illustrator 28.2.0, SVG Export Plug-In . SVG Version: 6.00 Build 0)  -->
<svg version="1.1" id="Layer_1" xmlns="http://www.w3.org/2000/svg" xmlns:xlink="http://www.w3.org/1999/xlink" x="0px" y="0px"
	 viewBox="0 0 171 40" style="enable-background:new 0 0 171 40;" xml:space="preserve">
<style type="text/css">
	.st0{fill:#024B62;}
	.st1{fill:#B07029;}
	.st2{fill:#0A7EC2;}
	.st3{fill:#D08429;}
</style>
<path id="XMLID_00000174588239892788995070000004273164053255475892_" class="st0" d="M48.5,8.5L50.1,0h8l-1.5,8.5H48.5z M43.2,39.3
	L48,12.2h8l-4.8,27.1H43.2z"/>
<path id="XMLID_00000085929455809495222630000015930139863606901152_" class="st0" d="M58.7,21.6c1.2-6.4,4.6-9.9,10.9-9.9
	c2.2,0,5,0.4,6.8,0.8l2-11.3L86.5,0l-6.9,39.3h-6.3l-0.5-2.2c-2.1,1.2-5.8,2.7-8.9,2.7c-5.5,0-8-3.4-6.8-9.9L58.7,21.6z M75.2,19.3
	c-1.4-0.4-3.3-0.6-5-0.6c-2.1,0-3.2,1.3-3.4,3l-1.4,8.2c-0.4,1.9,0.2,3,2.3,3c1.9,0,4.2-1.2,5.5-2.1L75.2,19.3z"/>
<path id="XMLID_00000038404270527871892520000004881405961156320176_" class="st0" d="M94,28.5l-0.1,0.8c-0.6,3.2,0.5,4,4.2,4
	c2.5,0,6-0.5,8.4-1.2l0.1,6c-2.6,0.9-6.8,1.8-10.5,1.8c-8.8,0-11.3-4.3-10.2-11l1.2-6.4c1.1-5.8,4.6-10.9,13.6-10.9s10.1,5.3,9,11.2
	l-0.9,5.6L94,28.5L94,28.5z M102.3,21.4c0.4-1.9,0.1-3.5-2.8-3.5c-2.8,0-4,1.5-4.2,3.5l-0.2,1.2h7L102.3,21.4z"/>
<path id="XMLID_00000017512252688689669460000012691195686888267954_" class="st0" d="M116.5,8.5L118,0h8l-1.5,8.5H116.5z
	 M111.1,39.3l4.8-27.1h8l-4.8,27.1H111.1z"/>
<path id="XMLID_00000111184880729848045830000014676761278288219809_" class="st0" d="M133.2,29c-0.5,2.8,0.5,4.1,3.6,4.1
	c2.1,0,3.6-0.2,5.6-0.6l-0.1,6.7c-2.8,0.6-4.8,0.8-6.8,0.8c-8.8,0-11.8-3.3-10.5-11l1.1-6.2c1.4-7.7,5.6-11,14.4-11
	c1.9,0,3.9,0.2,6.4,0.8l-2.2,6.7c-1.6-0.4-3.9-0.6-5.5-0.6c-3.3,0-4.6,1.3-5.1,4.1L133.2,29z"/>
<path id="XMLID_00000080186580263002291230000013858245160431085487_" class="st0" d="M154.7,28.5l-0.1,0.8c-0.6,3.2,0.5,4,4.2,4
	c2.5,0,6-0.5,8.4-1.2l0.1,6c-2.6,0.9-6.8,1.8-10.5,1.8c-8.8,0-11.3-4.3-10.2-11l1.2-6.4c1.1-5.8,4.6-10.9,13.6-10.9s9.9,5.3,9,11.2
	l-0.9,5.6L154.7,28.5L154.7,28.5z M163,21.4c0.4-1.9,0.1-3.5-2.8-3.5c-2.8,0-4,1.5-4.2,3.5l-0.2,1.2h7L163,21.4z"/>
<g>
	<path id="XMLID_00000088122782798211736310000010917881683985855150_" class="st0" d="M38.9,3.2C37.8,4,36.7,4.9,35.7,6v28.4
		c0,1.2-0.6,1.8-1.9,1.8h-25l-2,2.7l0,0c-0.1,0.1-0.2,0.2-0.5,0.5h27.5c4.3,0,5.5-2.5,5.5-4.9V4.9C39.3,4.3,39.2,3.7,38.9,3.2
		L38.9,3.2z"/>
	<path id="XMLID_00000165936871609625292300000008299003158171602592_" class="st1" d="M0.4,32.5L0.4,32.5L3.6,30V4.8
		C3.5,3.6,4.1,3,5.4,3h27.1c1.2-0.9,2.5-1.9,3.6-2.7C35.6,0.1,34.6,0,33.7,0H5.5C1.2,0,0,2.5,0,4.9V33C0.1,32.9,0.2,32.6,0.4,32.5z"
		/>
	<path id="XMLID_00000028325807555896343280000007870552303277789580_" class="st2" d="M27,16.3c1.4,2.9,0.8,6.5-1.6,9.1
		c-3.2,3.2-8.3,3.2-11.5,0s-3.2-8.3,0-11.5c2.6-2.6,6.5-3,9.6-1.4c0.5-0.6,0.9-1.3,1.5-1.9c-4.1-2.5-9.2-1.9-12.7,1.5
		c-3.7,3.7-4.1,9.6-0.9,13.7L1.3,33.5c-1.3,1.3-1.3,3.3,0,4.4c1.3,1.3,3.3,1.3,4.4,0l7.5-10.1c4.1,3.2,9.9,2.8,13.7-0.9
		c3.5-3.5,4-8.9,1.5-12.9C28,14.9,27.5,15.6,27,16.3z"/>
	<path id="XMLID_00000134210231241109595650000018351907514457634186_" class="st3" d="M21.9,23.4c1.4-4,3.7-8,7-12
		c2.9-3.6,6-6.8,9.4-9.2c-0.1-0.5-0.2-0.8-0.6-1.2c-0.1,0-0.1,0-0.1,0c-3.2,2.1-6.2,4.6-9,7.6c-3.3,3.5-6,7.3-8.3,11.3l-0.7-1.5
		c-1.4-3-2.5-4.4-3.6-4.4c-0.8,0-1.8,0.5-2.8,1.4c0.8,0.1,1.5,0.6,2.2,1.5c0.6,0.9,1.5,2.6,2.5,5l0.5,1.2c0.5,1.1,0.6,1.8,0.8,2.2
		c0.6-0.5,1.2-0.9,1.9-1.4L21.9,23.4z"/>
</g>
</svg>
